<mxfile host="app.diagrams.net" modified="2023-08-06T01:56:51.628Z" agent="Mozilla/5.0 (Windows NT 10.0; Win64; x64) AppleWebKit/537.36 (KHTML, like Gecko) Chrome/115.0.0.0 Safari/537.36" etag="PAdZX6srxFS_bPgvjHKb" version="21.6.6" type="device">
  <diagram name="Page-1" id="SVk_D3LPolmjMCh7F8hX">
    <mxGraphModel dx="792" dy="1534" grid="1" gridSize="10" guides="1" tooltips="1" connect="1" arrows="1" fold="1" page="1" pageScale="1" pageWidth="850" pageHeight="1100" math="0" shadow="0">
      <root>
        <mxCell id="0" />
        <mxCell id="1" parent="0" />
        <mxCell id="oqIGxbmCZCO3_jLDH1on-1" value="&lt;b&gt;wards&lt;/b&gt;" style="rounded=0;whiteSpace=wrap;html=1;fontSize=18;fillColor=#b0e3e6;strokeColor=#0e8088;" vertex="1" parent="1">
          <mxGeometry x="170" y="40" width="110" height="40" as="geometry" />
        </mxCell>
        <mxCell id="oqIGxbmCZCO3_jLDH1on-2" value="&lt;b&gt;patients&lt;/b&gt;" style="rounded=0;whiteSpace=wrap;html=1;fontSize=18;fillColor=#b0e3e6;strokeColor=#0e8088;" vertex="1" parent="1">
          <mxGeometry x="620" y="40" width="120" height="40" as="geometry" />
        </mxCell>
        <mxCell id="oqIGxbmCZCO3_jLDH1on-3" value="&lt;u style=&quot;font-size: 18px;&quot;&gt;ward_id&lt;/u&gt;" style="ellipse;whiteSpace=wrap;html=1;fontSize=18;fillColor=#b0e3e6;strokeColor=#0e8088;" vertex="1" parent="1">
          <mxGeometry x="60" y="-80" width="120" height="60" as="geometry" />
        </mxCell>
        <mxCell id="oqIGxbmCZCO3_jLDH1on-4" value="name" style="ellipse;whiteSpace=wrap;html=1;fontSize=18;fillColor=#b0e3e6;strokeColor=#0e8088;" vertex="1" parent="1">
          <mxGeometry x="230" y="-80" width="120" height="60" as="geometry" />
        </mxCell>
        <mxCell id="oqIGxbmCZCO3_jLDH1on-5" value="" style="endArrow=none;html=1;rounded=0;exitX=0.151;exitY=0.008;exitDx=0;exitDy=0;exitPerimeter=0;entryX=0.682;entryY=0.993;entryDx=0;entryDy=0;entryPerimeter=0;fontSize=18;fillColor=#b0e3e6;strokeColor=#0e8088;" edge="1" parent="1" source="oqIGxbmCZCO3_jLDH1on-1" target="oqIGxbmCZCO3_jLDH1on-3">
          <mxGeometry width="50" height="50" relative="1" as="geometry">
            <mxPoint x="100" y="60" as="sourcePoint" />
            <mxPoint x="150" y="10" as="targetPoint" />
          </mxGeometry>
        </mxCell>
        <mxCell id="oqIGxbmCZCO3_jLDH1on-6" value="" style="endArrow=none;html=1;rounded=0;exitX=0.5;exitY=0;exitDx=0;exitDy=0;entryX=0.301;entryY=0.942;entryDx=0;entryDy=0;entryPerimeter=0;fontSize=18;fillColor=#b0e3e6;strokeColor=#0e8088;" edge="1" parent="1" source="oqIGxbmCZCO3_jLDH1on-1" target="oqIGxbmCZCO3_jLDH1on-4">
          <mxGeometry width="50" height="50" relative="1" as="geometry">
            <mxPoint x="260" y="20" as="sourcePoint" />
            <mxPoint x="310" y="-30" as="targetPoint" />
          </mxGeometry>
        </mxCell>
        <mxCell id="oqIGxbmCZCO3_jLDH1on-7" value="&lt;u style=&quot;font-size: 18px;&quot;&gt;pat_id&lt;/u&gt;" style="ellipse;whiteSpace=wrap;html=1;fontSize=18;fillColor=#b0e3e6;strokeColor=#0e8088;" vertex="1" parent="1">
          <mxGeometry x="520" y="-50" width="110" height="60" as="geometry" />
        </mxCell>
        <mxCell id="oqIGxbmCZCO3_jLDH1on-8" value="name" style="ellipse;whiteSpace=wrap;html=1;fontSize=18;fillColor=#b0e3e6;strokeColor=#0e8088;" vertex="1" parent="1">
          <mxGeometry x="610" y="-110" width="110" height="60" as="geometry" />
        </mxCell>
        <mxCell id="oqIGxbmCZCO3_jLDH1on-9" value="date_of_birth" style="ellipse;whiteSpace=wrap;html=1;fontSize=18;fillColor=#b0e3e6;strokeColor=#0e8088;" vertex="1" parent="1">
          <mxGeometry x="720" y="-50" width="120" height="60" as="geometry" />
        </mxCell>
        <mxCell id="oqIGxbmCZCO3_jLDH1on-10" value="" style="endArrow=none;html=1;rounded=0;exitX=0.5;exitY=0;exitDx=0;exitDy=0;entryX=0.62;entryY=1.01;entryDx=0;entryDy=0;entryPerimeter=0;fontSize=18;fillColor=#b0e3e6;strokeColor=#0e8088;" edge="1" parent="1" source="oqIGxbmCZCO3_jLDH1on-2" target="oqIGxbmCZCO3_jLDH1on-8">
          <mxGeometry width="50" height="50" relative="1" as="geometry">
            <mxPoint x="630" y="20" as="sourcePoint" />
            <mxPoint x="680" y="-30" as="targetPoint" />
          </mxGeometry>
        </mxCell>
        <mxCell id="oqIGxbmCZCO3_jLDH1on-11" value="" style="endArrow=none;html=1;rounded=0;exitX=0.25;exitY=0;exitDx=0;exitDy=0;entryX=1;entryY=1;entryDx=0;entryDy=0;fontSize=18;fillColor=#b0e3e6;strokeColor=#0e8088;" edge="1" parent="1" source="oqIGxbmCZCO3_jLDH1on-2" target="oqIGxbmCZCO3_jLDH1on-7">
          <mxGeometry width="50" height="50" relative="1" as="geometry">
            <mxPoint x="690" y="50" as="sourcePoint" />
            <mxPoint x="688" y="-39" as="targetPoint" />
          </mxGeometry>
        </mxCell>
        <mxCell id="oqIGxbmCZCO3_jLDH1on-12" value="" style="endArrow=none;html=1;rounded=0;exitX=0.75;exitY=0;exitDx=0;exitDy=0;entryX=0;entryY=1;entryDx=0;entryDy=0;fontSize=18;fillColor=#b0e3e6;strokeColor=#0e8088;" edge="1" parent="1" source="oqIGxbmCZCO3_jLDH1on-2" target="oqIGxbmCZCO3_jLDH1on-9">
          <mxGeometry width="50" height="50" relative="1" as="geometry">
            <mxPoint x="700" y="60" as="sourcePoint" />
            <mxPoint x="698" y="-29" as="targetPoint" />
          </mxGeometry>
        </mxCell>
        <mxCell id="oqIGxbmCZCO3_jLDH1on-13" value="host" style="rhombus;whiteSpace=wrap;html=1;fontSize=18;fillColor=#b0e3e6;strokeColor=#0e8088;" vertex="1" parent="1">
          <mxGeometry x="420" y="20" width="80" height="80" as="geometry" />
        </mxCell>
        <mxCell id="oqIGxbmCZCO3_jLDH1on-14" value="" style="endArrow=none;html=1;rounded=0;exitX=1;exitY=0.5;exitDx=0;exitDy=0;entryX=0;entryY=0.5;entryDx=0;entryDy=0;fontSize=18;fillColor=#b0e3e6;strokeColor=#0e8088;" edge="1" parent="1" source="oqIGxbmCZCO3_jLDH1on-1" target="oqIGxbmCZCO3_jLDH1on-13">
          <mxGeometry width="50" height="50" relative="1" as="geometry">
            <mxPoint x="340" y="110" as="sourcePoint" />
            <mxPoint x="390" y="60" as="targetPoint" />
          </mxGeometry>
        </mxCell>
        <mxCell id="oqIGxbmCZCO3_jLDH1on-15" value="" style="endArrow=none;html=1;rounded=0;exitX=1;exitY=0.5;exitDx=0;exitDy=0;entryX=0;entryY=0.5;entryDx=0;entryDy=0;fontSize=18;fillColor=#b0e3e6;strokeColor=#0e8088;" edge="1" parent="1" source="oqIGxbmCZCO3_jLDH1on-13" target="oqIGxbmCZCO3_jLDH1on-2">
          <mxGeometry width="50" height="50" relative="1" as="geometry">
            <mxPoint x="530" y="90" as="sourcePoint" />
            <mxPoint x="580" y="40" as="targetPoint" />
          </mxGeometry>
        </mxCell>
        <mxCell id="oqIGxbmCZCO3_jLDH1on-16" value="m" style="text;html=1;align=center;verticalAlign=middle;resizable=0;points=[];autosize=1;fontSize=18;" vertex="1" parent="1">
          <mxGeometry x="575" y="35" width="40" height="40" as="geometry" />
        </mxCell>
        <mxCell id="oqIGxbmCZCO3_jLDH1on-18" value="1" style="text;html=1;align=center;verticalAlign=middle;resizable=0;points=[];autosize=1;fontSize=18;" vertex="1" parent="1">
          <mxGeometry x="290" y="35" width="30" height="40" as="geometry" />
        </mxCell>
        <mxCell id="oqIGxbmCZCO3_jLDH1on-19" value="" style="endArrow=none;html=1;rounded=0;exitX=0.915;exitY=0.593;exitDx=0;exitDy=0;exitPerimeter=0;fontSize=18;fillColor=#b0e3e6;strokeColor=#0e8088;" edge="1" parent="1" source="oqIGxbmCZCO3_jLDH1on-13">
          <mxGeometry width="50" height="50" relative="1" as="geometry">
            <mxPoint x="160" y="260" as="sourcePoint" />
            <mxPoint x="620" y="67" as="targetPoint" />
          </mxGeometry>
        </mxCell>
        <mxCell id="oqIGxbmCZCO3_jLDH1on-20" value="&lt;b&gt;consultant&lt;/b&gt;" style="rounded=0;whiteSpace=wrap;html=1;fontSize=18;fillColor=#b0e3e6;strokeColor=#0e8088;" vertex="1" parent="1">
          <mxGeometry x="630" y="320" width="120" height="40" as="geometry" />
        </mxCell>
        <mxCell id="oqIGxbmCZCO3_jLDH1on-21" value="assign" style="rhombus;whiteSpace=wrap;html=1;fontSize=18;fillColor=#b0e3e6;strokeColor=#0e8088;" vertex="1" parent="1">
          <mxGeometry x="620" y="160" width="80" height="80" as="geometry" />
        </mxCell>
        <mxCell id="oqIGxbmCZCO3_jLDH1on-22" value="" style="endArrow=none;html=1;rounded=0;exitX=0.5;exitY=0;exitDx=0;exitDy=0;fontSize=18;fillColor=#b0e3e6;strokeColor=#0e8088;" edge="1" parent="1" source="oqIGxbmCZCO3_jLDH1on-21" target="oqIGxbmCZCO3_jLDH1on-2">
          <mxGeometry width="50" height="50" relative="1" as="geometry">
            <mxPoint x="620" y="140" as="sourcePoint" />
            <mxPoint x="670" y="90" as="targetPoint" />
          </mxGeometry>
        </mxCell>
        <mxCell id="oqIGxbmCZCO3_jLDH1on-23" value="" style="endArrow=none;html=1;rounded=0;entryX=0.5;entryY=1;entryDx=0;entryDy=0;exitX=0.425;exitY=0.018;exitDx=0;exitDy=0;exitPerimeter=0;fontSize=18;fillColor=#b0e3e6;strokeColor=#0e8088;" edge="1" parent="1" source="oqIGxbmCZCO3_jLDH1on-20" target="oqIGxbmCZCO3_jLDH1on-21">
          <mxGeometry width="50" height="50" relative="1" as="geometry">
            <mxPoint x="620" y="320" as="sourcePoint" />
            <mxPoint x="670" y="270" as="targetPoint" />
          </mxGeometry>
        </mxCell>
        <mxCell id="oqIGxbmCZCO3_jLDH1on-25" value="1" style="text;html=1;align=center;verticalAlign=middle;resizable=0;points=[];autosize=1;fontSize=18;" vertex="1" parent="1">
          <mxGeometry x="650" y="283" width="30" height="40" as="geometry" />
        </mxCell>
        <mxCell id="oqIGxbmCZCO3_jLDH1on-26" value="m" style="text;html=1;align=center;verticalAlign=middle;resizable=0;points=[];autosize=1;fontSize=18;" vertex="1" parent="1">
          <mxGeometry x="680" y="73" width="40" height="40" as="geometry" />
        </mxCell>
        <mxCell id="oqIGxbmCZCO3_jLDH1on-27" value="" style="endArrow=none;html=1;rounded=0;exitX=0.389;exitY=0.093;exitDx=0;exitDy=0;exitPerimeter=0;fontSize=18;fillColor=#b0e3e6;strokeColor=#0e8088;" edge="1" parent="1" source="oqIGxbmCZCO3_jLDH1on-21">
          <mxGeometry width="50" height="50" relative="1" as="geometry">
            <mxPoint x="660" y="160" as="sourcePoint" />
            <mxPoint x="670" y="80" as="targetPoint" />
          </mxGeometry>
        </mxCell>
        <mxCell id="oqIGxbmCZCO3_jLDH1on-28" value="examine" style="rhombus;whiteSpace=wrap;html=1;fontSize=18;fillColor=#b0e3e6;strokeColor=#0e8088;" vertex="1" parent="1">
          <mxGeometry x="715" y="160" width="80" height="80" as="geometry" />
        </mxCell>
        <mxCell id="oqIGxbmCZCO3_jLDH1on-29" value="" style="endArrow=none;html=1;rounded=0;exitX=0.5;exitY=0;exitDx=0;exitDy=0;entryX=0.859;entryY=1.013;entryDx=0;entryDy=0;entryPerimeter=0;fontSize=18;fillColor=#b0e3e6;strokeColor=#0e8088;" edge="1" parent="1" source="oqIGxbmCZCO3_jLDH1on-28" target="oqIGxbmCZCO3_jLDH1on-2">
          <mxGeometry width="50" height="50" relative="1" as="geometry">
            <mxPoint x="710" y="132" as="sourcePoint" />
            <mxPoint x="770" y="72" as="targetPoint" />
          </mxGeometry>
        </mxCell>
        <mxCell id="oqIGxbmCZCO3_jLDH1on-30" value="" style="endArrow=none;html=1;rounded=0;entryX=0.5;entryY=1;entryDx=0;entryDy=0;exitX=0.75;exitY=0;exitDx=0;exitDy=0;fontSize=18;fillColor=#b0e3e6;strokeColor=#0e8088;" edge="1" parent="1" target="oqIGxbmCZCO3_jLDH1on-28" source="oqIGxbmCZCO3_jLDH1on-20">
          <mxGeometry width="50" height="50" relative="1" as="geometry">
            <mxPoint x="771" y="313" as="sourcePoint" />
            <mxPoint x="760" y="262" as="targetPoint" />
          </mxGeometry>
        </mxCell>
        <mxCell id="oqIGxbmCZCO3_jLDH1on-31" value="m" style="text;html=1;align=center;verticalAlign=middle;resizable=0;points=[];autosize=1;fontSize=18;" vertex="1" parent="1">
          <mxGeometry x="725" y="285" width="40" height="40" as="geometry" />
        </mxCell>
        <mxCell id="oqIGxbmCZCO3_jLDH1on-32" value="m" style="text;html=1;align=center;verticalAlign=middle;resizable=0;points=[];autosize=1;fontSize=18;" vertex="1" parent="1">
          <mxGeometry x="715" y="73" width="40" height="40" as="geometry" />
        </mxCell>
        <mxCell id="oqIGxbmCZCO3_jLDH1on-34" value="name" style="ellipse;whiteSpace=wrap;html=1;fontSize=18;fillColor=#b0e3e6;strokeColor=#0e8088;" vertex="1" parent="1">
          <mxGeometry x="640" y="422" width="120" height="60" as="geometry" />
        </mxCell>
        <mxCell id="oqIGxbmCZCO3_jLDH1on-35" value="&lt;u style=&quot;font-size: 18px;&quot;&gt;conslt_id&lt;/u&gt;" style="ellipse;whiteSpace=wrap;html=1;fontSize=18;fillColor=#b0e3e6;strokeColor=#0e8088;" vertex="1" parent="1">
          <mxGeometry x="770" y="380" width="120" height="60" as="geometry" />
        </mxCell>
        <mxCell id="oqIGxbmCZCO3_jLDH1on-36" value="" style="endArrow=none;html=1;rounded=0;exitX=0.5;exitY=0;exitDx=0;exitDy=0;entryX=0.5;entryY=1;entryDx=0;entryDy=0;fontSize=18;fillColor=#b0e3e6;strokeColor=#0e8088;" edge="1" parent="1" source="oqIGxbmCZCO3_jLDH1on-34" target="oqIGxbmCZCO3_jLDH1on-20">
          <mxGeometry width="50" height="50" relative="1" as="geometry">
            <mxPoint x="540" y="410" as="sourcePoint" />
            <mxPoint x="690" y="370" as="targetPoint" />
          </mxGeometry>
        </mxCell>
        <mxCell id="oqIGxbmCZCO3_jLDH1on-37" value="" style="endArrow=none;html=1;rounded=0;entryX=1;entryY=0.75;entryDx=0;entryDy=0;exitX=0.293;exitY=0.074;exitDx=0;exitDy=0;exitPerimeter=0;fontSize=18;fillColor=#b0e3e6;strokeColor=#0e8088;" edge="1" parent="1" source="oqIGxbmCZCO3_jLDH1on-35" target="oqIGxbmCZCO3_jLDH1on-20">
          <mxGeometry width="50" height="50" relative="1" as="geometry">
            <mxPoint x="690" y="430" as="sourcePoint" />
            <mxPoint x="740" y="380" as="targetPoint" />
          </mxGeometry>
        </mxCell>
        <mxCell id="oqIGxbmCZCO3_jLDH1on-38" value="&lt;b&gt;nurses&lt;/b&gt;" style="rounded=0;whiteSpace=wrap;html=1;fontSize=18;fillColor=#b0e3e6;strokeColor=#0e8088;" vertex="1" parent="1">
          <mxGeometry x="180" y="318" width="120" height="42" as="geometry" />
        </mxCell>
        <mxCell id="oqIGxbmCZCO3_jLDH1on-39" value="&lt;u style=&quot;font-size: 18px;&quot;&gt;id&lt;/u&gt;" style="ellipse;whiteSpace=wrap;html=1;fontSize=18;fillColor=#b0e3e6;strokeColor=#0e8088;" vertex="1" parent="1">
          <mxGeometry x="20" y="350" width="110" height="40" as="geometry" />
        </mxCell>
        <mxCell id="oqIGxbmCZCO3_jLDH1on-40" value="name" style="ellipse;whiteSpace=wrap;html=1;fontSize=18;fillColor=#b0e3e6;strokeColor=#0e8088;" vertex="1" parent="1">
          <mxGeometry x="20" y="410" width="110" height="50" as="geometry" />
        </mxCell>
        <mxCell id="oqIGxbmCZCO3_jLDH1on-41" value="address" style="ellipse;whiteSpace=wrap;html=1;fontSize=18;fillColor=#b0e3e6;strokeColor=#0e8088;" vertex="1" parent="1">
          <mxGeometry x="140" y="442" width="110" height="48" as="geometry" />
        </mxCell>
        <mxCell id="oqIGxbmCZCO3_jLDH1on-42" value="" style="endArrow=none;html=1;rounded=0;exitX=1;exitY=0.5;exitDx=0;exitDy=0;entryX=0;entryY=1;entryDx=0;entryDy=0;fontSize=18;fillColor=#b0e3e6;strokeColor=#0e8088;" edge="1" parent="1" source="oqIGxbmCZCO3_jLDH1on-39" target="oqIGxbmCZCO3_jLDH1on-38">
          <mxGeometry width="50" height="50" relative="1" as="geometry">
            <mxPoint x="170" y="430" as="sourcePoint" />
            <mxPoint x="220" y="380" as="targetPoint" />
          </mxGeometry>
        </mxCell>
        <mxCell id="oqIGxbmCZCO3_jLDH1on-43" value="" style="endArrow=none;html=1;rounded=0;exitX=1;exitY=0;exitDx=0;exitDy=0;entryX=0.25;entryY=1;entryDx=0;entryDy=0;fontSize=18;fillColor=#b0e3e6;strokeColor=#0e8088;" edge="1" parent="1" source="oqIGxbmCZCO3_jLDH1on-40" target="oqIGxbmCZCO3_jLDH1on-38">
          <mxGeometry width="50" height="50" relative="1" as="geometry">
            <mxPoint x="170" y="430" as="sourcePoint" />
            <mxPoint x="220" y="380" as="targetPoint" />
          </mxGeometry>
        </mxCell>
        <mxCell id="oqIGxbmCZCO3_jLDH1on-44" value="" style="endArrow=none;html=1;rounded=0;entryX=0.437;entryY=1.021;entryDx=0;entryDy=0;entryPerimeter=0;fontSize=18;fillColor=#b0e3e6;strokeColor=#0e8088;" edge="1" parent="1" source="oqIGxbmCZCO3_jLDH1on-41" target="oqIGxbmCZCO3_jLDH1on-38">
          <mxGeometry width="50" height="50" relative="1" as="geometry">
            <mxPoint x="220" y="450" as="sourcePoint" />
            <mxPoint x="270" y="400" as="targetPoint" />
          </mxGeometry>
        </mxCell>
        <mxCell id="oqIGxbmCZCO3_jLDH1on-45" value="gives" style="rhombus;whiteSpace=wrap;html=1;fontSize=18;fillColor=#b0e3e6;strokeColor=#0e8088;" vertex="1" parent="1">
          <mxGeometry x="375" y="130" width="80" height="80" as="geometry" />
        </mxCell>
        <mxCell id="oqIGxbmCZCO3_jLDH1on-46" value="" style="endArrow=none;html=1;rounded=0;exitX=0.679;exitY=-0.047;exitDx=0;exitDy=0;exitPerimeter=0;entryX=0;entryY=0.5;entryDx=0;entryDy=0;fontSize=18;fillColor=#b0e3e6;strokeColor=#0e8088;" edge="1" parent="1" source="oqIGxbmCZCO3_jLDH1on-38" target="oqIGxbmCZCO3_jLDH1on-45">
          <mxGeometry width="50" height="50" relative="1" as="geometry">
            <mxPoint x="300" y="260" as="sourcePoint" />
            <mxPoint x="350" y="210" as="targetPoint" />
          </mxGeometry>
        </mxCell>
        <mxCell id="oqIGxbmCZCO3_jLDH1on-47" value="" style="endArrow=none;html=1;rounded=0;entryX=0;entryY=1;entryDx=0;entryDy=0;exitX=0.5;exitY=0;exitDx=0;exitDy=0;fontSize=18;fillColor=#b0e3e6;strokeColor=#0e8088;" edge="1" parent="1" source="oqIGxbmCZCO3_jLDH1on-45" target="oqIGxbmCZCO3_jLDH1on-2">
          <mxGeometry width="50" height="50" relative="1" as="geometry">
            <mxPoint x="560" y="460" as="sourcePoint" />
            <mxPoint x="610" y="410" as="targetPoint" />
          </mxGeometry>
        </mxCell>
        <mxCell id="oqIGxbmCZCO3_jLDH1on-48" value="supervise" style="rhombus;whiteSpace=wrap;html=1;fontSize=18;fillColor=#b0e3e6;strokeColor=#0e8088;" vertex="1" parent="1">
          <mxGeometry x="215" y="160" width="80" height="80" as="geometry" />
        </mxCell>
        <mxCell id="oqIGxbmCZCO3_jLDH1on-49" value="" style="endArrow=none;html=1;rounded=0;entryX=0.5;entryY=1;entryDx=0;entryDy=0;fontSize=18;fillColor=#b0e3e6;strokeColor=#0e8088;" edge="1" parent="1" target="oqIGxbmCZCO3_jLDH1on-48">
          <mxGeometry width="50" height="50" relative="1" as="geometry">
            <mxPoint x="220" y="320" as="sourcePoint" />
            <mxPoint x="220" y="270" as="targetPoint" />
          </mxGeometry>
        </mxCell>
        <mxCell id="oqIGxbmCZCO3_jLDH1on-50" value="" style="endArrow=none;html=1;rounded=0;entryX=0.75;entryY=1;entryDx=0;entryDy=0;exitX=0.5;exitY=0;exitDx=0;exitDy=0;fontSize=18;fillColor=#b0e3e6;strokeColor=#0e8088;" edge="1" parent="1" source="oqIGxbmCZCO3_jLDH1on-48" target="oqIGxbmCZCO3_jLDH1on-1">
          <mxGeometry width="50" height="50" relative="1" as="geometry">
            <mxPoint x="100" y="180" as="sourcePoint" />
            <mxPoint x="150" y="130" as="targetPoint" />
          </mxGeometry>
        </mxCell>
        <mxCell id="oqIGxbmCZCO3_jLDH1on-51" value="1" style="text;html=1;align=center;verticalAlign=middle;resizable=0;points=[];autosize=1;fontSize=18;" vertex="1" parent="1">
          <mxGeometry x="215" y="285" width="30" height="40" as="geometry" />
        </mxCell>
        <mxCell id="oqIGxbmCZCO3_jLDH1on-52" value="1" style="text;html=1;align=center;verticalAlign=middle;resizable=0;points=[];autosize=1;fontSize=18;" vertex="1" parent="1">
          <mxGeometry x="215" y="70" width="30" height="40" as="geometry" />
        </mxCell>
        <mxCell id="oqIGxbmCZCO3_jLDH1on-54" value="serve in" style="rhombus;whiteSpace=wrap;html=1;fontSize=18;fillColor=#b0e3e6;strokeColor=#0e8088;" vertex="1" parent="1">
          <mxGeometry x="130" y="160" width="80" height="80" as="geometry" />
        </mxCell>
        <mxCell id="oqIGxbmCZCO3_jLDH1on-55" value="" style="endArrow=none;html=1;rounded=0;exitX=0.188;exitY=0.02;exitDx=0;exitDy=0;exitPerimeter=0;entryX=0.5;entryY=1;entryDx=0;entryDy=0;fontSize=18;fillColor=#b0e3e6;strokeColor=#0e8088;" edge="1" parent="1" source="oqIGxbmCZCO3_jLDH1on-38" target="oqIGxbmCZCO3_jLDH1on-54">
          <mxGeometry width="50" height="50" relative="1" as="geometry">
            <mxPoint x="70" y="320" as="sourcePoint" />
            <mxPoint x="120" y="270" as="targetPoint" />
          </mxGeometry>
        </mxCell>
        <mxCell id="oqIGxbmCZCO3_jLDH1on-56" value="" style="endArrow=none;html=1;rounded=0;exitX=0.25;exitY=0;exitDx=0;exitDy=0;entryX=0.549;entryY=0.922;entryDx=0;entryDy=0;entryPerimeter=0;fontSize=18;fillColor=#b0e3e6;strokeColor=#0e8088;" edge="1" parent="1" source="oqIGxbmCZCO3_jLDH1on-38" target="oqIGxbmCZCO3_jLDH1on-54">
          <mxGeometry width="50" height="50" relative="1" as="geometry">
            <mxPoint x="100" y="320" as="sourcePoint" />
            <mxPoint x="160" y="240" as="targetPoint" />
          </mxGeometry>
        </mxCell>
        <mxCell id="oqIGxbmCZCO3_jLDH1on-57" value="" style="endArrow=none;html=1;rounded=0;entryX=0.067;entryY=1.036;entryDx=0;entryDy=0;entryPerimeter=0;exitX=0.5;exitY=0;exitDx=0;exitDy=0;fontSize=18;fillColor=#b0e3e6;strokeColor=#0e8088;" edge="1" parent="1" source="oqIGxbmCZCO3_jLDH1on-54" target="oqIGxbmCZCO3_jLDH1on-1">
          <mxGeometry width="50" height="50" relative="1" as="geometry">
            <mxPoint x="130" y="140" as="sourcePoint" />
            <mxPoint x="180" y="90" as="targetPoint" />
          </mxGeometry>
        </mxCell>
        <mxCell id="oqIGxbmCZCO3_jLDH1on-58" value="1" style="text;html=1;align=center;verticalAlign=middle;resizable=0;points=[];autosize=1;fontSize=18;" vertex="1" parent="1">
          <mxGeometry x="165" y="73" width="30" height="40" as="geometry" />
        </mxCell>
        <mxCell id="oqIGxbmCZCO3_jLDH1on-60" value="m" style="text;html=1;align=center;verticalAlign=middle;resizable=0;points=[];autosize=1;fontSize=18;" vertex="1" parent="1">
          <mxGeometry x="150" y="283" width="40" height="40" as="geometry" />
        </mxCell>
        <mxCell id="oqIGxbmCZCO3_jLDH1on-61" value="" style="endArrow=none;html=1;rounded=0;entryX=1.018;entryY=0.24;entryDx=0;entryDy=0;entryPerimeter=0;exitX=0.441;exitY=0.093;exitDx=0;exitDy=0;exitPerimeter=0;fontSize=18;fillColor=#b0e3e6;strokeColor=#0e8088;" edge="1" parent="1" source="oqIGxbmCZCO3_jLDH1on-48" target="oqIGxbmCZCO3_jLDH1on-52">
          <mxGeometry width="50" height="50" relative="1" as="geometry">
            <mxPoint x="160" y="150" as="sourcePoint" />
            <mxPoint x="210" y="100" as="targetPoint" />
          </mxGeometry>
        </mxCell>
        <mxCell id="oqIGxbmCZCO3_jLDH1on-62" value="&lt;b&gt;drugs&lt;/b&gt;" style="rounded=0;whiteSpace=wrap;html=1;fontSize=18;fillColor=#b0e3e6;strokeColor=#0e8088;" vertex="1" parent="1">
          <mxGeometry x="390" y="320" width="120" height="42" as="geometry" />
        </mxCell>
        <mxCell id="oqIGxbmCZCO3_jLDH1on-63" value="" style="ellipse;whiteSpace=wrap;html=1;fontSize=18;fillColor=#b0e3e6;strokeColor=#0e8088;" vertex="1" parent="1">
          <mxGeometry x="400" y="440" width="110" height="60" as="geometry" />
        </mxCell>
        <mxCell id="oqIGxbmCZCO3_jLDH1on-64" value="&lt;u style=&quot;font-size: 18px;&quot;&gt;code&lt;/u&gt;" style="ellipse;whiteSpace=wrap;html=1;fontSize=18;fillColor=#b0e3e6;strokeColor=#0e8088;" vertex="1" parent="1">
          <mxGeometry x="475" y="382" width="115" height="48" as="geometry" />
        </mxCell>
        <mxCell id="oqIGxbmCZCO3_jLDH1on-65" value="" style="endArrow=none;html=1;rounded=0;entryX=0;entryY=1;entryDx=0;entryDy=0;exitX=0.655;exitY=0.032;exitDx=0;exitDy=0;exitPerimeter=0;fontSize=18;fillColor=#b0e3e6;strokeColor=#0e8088;" edge="1" parent="1" target="oqIGxbmCZCO3_jLDH1on-62" source="oqIGxbmCZCO3_jLDH1on-71">
          <mxGeometry width="50" height="50" relative="1" as="geometry">
            <mxPoint x="360" y="420" as="sourcePoint" />
            <mxPoint x="450" y="372" as="targetPoint" />
          </mxGeometry>
        </mxCell>
        <mxCell id="oqIGxbmCZCO3_jLDH1on-66" value="" style="endArrow=none;html=1;rounded=0;exitX=0.418;exitY=-0.021;exitDx=0;exitDy=0;exitPerimeter=0;entryX=0.25;entryY=1;entryDx=0;entryDy=0;fontSize=18;fillColor=#b0e3e6;strokeColor=#0e8088;" edge="1" parent="1" source="oqIGxbmCZCO3_jLDH1on-63" target="oqIGxbmCZCO3_jLDH1on-62">
          <mxGeometry width="50" height="50" relative="1" as="geometry">
            <mxPoint x="400" y="422" as="sourcePoint" />
            <mxPoint x="450" y="372" as="targetPoint" />
          </mxGeometry>
        </mxCell>
        <mxCell id="oqIGxbmCZCO3_jLDH1on-67" value="" style="endArrow=none;html=1;rounded=0;entryX=0.75;entryY=1;entryDx=0;entryDy=0;exitX=0;exitY=0;exitDx=0;exitDy=0;fontSize=18;fillColor=#b0e3e6;strokeColor=#0e8088;" edge="1" parent="1" source="oqIGxbmCZCO3_jLDH1on-64" target="oqIGxbmCZCO3_jLDH1on-62">
          <mxGeometry width="50" height="50" relative="1" as="geometry">
            <mxPoint x="450" y="442" as="sourcePoint" />
            <mxPoint x="500" y="392" as="targetPoint" />
          </mxGeometry>
        </mxCell>
        <mxCell id="oqIGxbmCZCO3_jLDH1on-71" value="&lt;font style=&quot;font-size: 18px;&quot;&gt;&lt;br style=&quot;font-size: 18px;&quot;&gt;&lt;b id=&quot;docs-internal-guid-4280ce3a-7fff-4026-dbe8-742d18da724f&quot; style=&quot;font-weight: normal; font-size: 18px;&quot;&gt;&lt;span style=&quot;font-family: Arial, sans-serif; color: rgb(0, 0, 0); background-color: transparent; font-weight: 400; font-style: normal; font-variant: normal; text-decoration: none; vertical-align: baseline; font-size: 18px;&quot;&gt;recommended dosage&lt;/span&gt;&lt;/b&gt;&lt;br style=&quot;font-size: 18px;&quot;&gt;&lt;/font&gt;" style="ellipse;whiteSpace=wrap;html=1;fontSize=18;fillColor=#b0e3e6;strokeColor=#0e8088;" vertex="1" parent="1">
          <mxGeometry x="280" y="430" width="110" height="60" as="geometry" />
        </mxCell>
        <mxCell id="oqIGxbmCZCO3_jLDH1on-72" value="brand name" style="ellipse;whiteSpace=wrap;html=1;fontSize=18;fillColor=#b0e3e6;strokeColor=#0e8088;" vertex="1" parent="1">
          <mxGeometry x="405" y="445" width="100" height="50" as="geometry" />
        </mxCell>
        <mxCell id="oqIGxbmCZCO3_jLDH1on-73" value="" style="endArrow=none;html=1;rounded=0;entryX=0.5;entryY=1;entryDx=0;entryDy=0;exitX=0.323;exitY=-0.005;exitDx=0;exitDy=0;exitPerimeter=0;fontSize=18;fillColor=#b0e3e6;strokeColor=#0e8088;" edge="1" parent="1" source="oqIGxbmCZCO3_jLDH1on-62" target="oqIGxbmCZCO3_jLDH1on-45">
          <mxGeometry width="50" height="50" relative="1" as="geometry">
            <mxPoint x="430" y="310" as="sourcePoint" />
            <mxPoint x="420" y="270" as="targetPoint" />
          </mxGeometry>
        </mxCell>
        <mxCell id="oqIGxbmCZCO3_jLDH1on-74" value="time" style="ellipse;whiteSpace=wrap;html=1;fontSize=18;fillColor=#b0e3e6;strokeColor=#0e8088;" vertex="1" parent="1">
          <mxGeometry x="475" y="130" width="100" height="40" as="geometry" />
        </mxCell>
        <mxCell id="oqIGxbmCZCO3_jLDH1on-75" value="dosage" style="ellipse;whiteSpace=wrap;html=1;fontSize=18;fillColor=#b0e3e6;strokeColor=#0e8088;" vertex="1" parent="1">
          <mxGeometry x="440" y="230" width="100" height="50" as="geometry" />
        </mxCell>
        <mxCell id="oqIGxbmCZCO3_jLDH1on-76" value="date" style="ellipse;whiteSpace=wrap;html=1;fontSize=18;fillColor=#b0e3e6;strokeColor=#0e8088;" vertex="1" parent="1">
          <mxGeometry x="485" y="180" width="90" height="40" as="geometry" />
        </mxCell>
        <mxCell id="oqIGxbmCZCO3_jLDH1on-77" value="" style="endArrow=none;html=1;rounded=0;entryX=0;entryY=0.5;entryDx=0;entryDy=0;exitX=1;exitY=0;exitDx=0;exitDy=0;fontSize=18;fillColor=#b0e3e6;strokeColor=#0e8088;" edge="1" parent="1" source="oqIGxbmCZCO3_jLDH1on-45" target="oqIGxbmCZCO3_jLDH1on-74">
          <mxGeometry width="50" height="50" relative="1" as="geometry">
            <mxPoint x="390" y="140" as="sourcePoint" />
            <mxPoint x="340" y="140" as="targetPoint" />
          </mxGeometry>
        </mxCell>
        <mxCell id="oqIGxbmCZCO3_jLDH1on-78" value="" style="endArrow=none;html=1;rounded=0;exitX=0.004;exitY=0.324;exitDx=0;exitDy=0;entryX=0.898;entryY=0.628;entryDx=0;entryDy=0;entryPerimeter=0;exitPerimeter=0;fontSize=18;fillColor=#b0e3e6;strokeColor=#0e8088;" edge="1" parent="1" source="oqIGxbmCZCO3_jLDH1on-76" target="oqIGxbmCZCO3_jLDH1on-45">
          <mxGeometry width="50" height="50" relative="1" as="geometry">
            <mxPoint x="415" y="170" as="sourcePoint" />
            <mxPoint x="395" y="144" as="targetPoint" />
          </mxGeometry>
        </mxCell>
        <mxCell id="oqIGxbmCZCO3_jLDH1on-79" value="" style="endArrow=none;html=1;rounded=0;entryX=1;entryY=1;entryDx=0;entryDy=0;exitX=0;exitY=0;exitDx=0;exitDy=0;fontSize=18;fillColor=#b0e3e6;strokeColor=#0e8088;" edge="1" parent="1" source="oqIGxbmCZCO3_jLDH1on-75" target="oqIGxbmCZCO3_jLDH1on-45">
          <mxGeometry width="50" height="50" relative="1" as="geometry">
            <mxPoint x="480" y="220" as="sourcePoint" />
            <mxPoint x="405" y="154" as="targetPoint" />
          </mxGeometry>
        </mxCell>
        <mxCell id="oqIGxbmCZCO3_jLDH1on-80" value="m" style="text;html=1;align=center;verticalAlign=middle;resizable=0;points=[];autosize=1;fillColor=none;fontSize=18;" vertex="1" parent="1">
          <mxGeometry x="600" y="73" width="40" height="40" as="geometry" />
        </mxCell>
        <mxCell id="oqIGxbmCZCO3_jLDH1on-81" value="m" style="text;html=1;align=center;verticalAlign=middle;resizable=0;points=[];autosize=1;fontSize=18;" vertex="1" parent="1">
          <mxGeometry x="270" y="283" width="40" height="40" as="geometry" />
        </mxCell>
        <mxCell id="oqIGxbmCZCO3_jLDH1on-82" value="m" style="text;html=1;align=center;verticalAlign=middle;resizable=0;points=[];autosize=1;fontSize=18;" vertex="1" parent="1">
          <mxGeometry x="420" y="283" width="40" height="40" as="geometry" />
        </mxCell>
      </root>
    </mxGraphModel>
  </diagram>
</mxfile>
